<mxfile host="app.diagrams.net" modified="2023-10-18T10:18:41.867Z" agent="Mozilla/5.0 (Windows NT 10.0; Win64; x64) AppleWebKit/537.36 (KHTML, like Gecko) Chrome/118.0.0.0 Safari/537.36" version="22.0.4" etag="MXSt15pWWLOixVJhLU9K" type="github">
  <diagram name="PÃ¡gina-1" id="0evpIVMP-S51y1I_4uKk">
    <mxGraphModel>
      <root>
        <mxCell id="0" />
        <mxCell id="1" parent="0" />
      </root>
    </mxGraphModel>
  </diagram>
</mxfile>
